<?xml version="1.0" encoding="UTF-8" standalone="no"?>
<!-- Created with Inkscape (http://www.inkscape.org/) -->

<svg
   xmlns:dc="http://purl.org/dc/elements/1.1/"
   xmlns:cc="http://creativecommons.org/ns#"
   xmlns:rdf="http://www.w3.org/1999/02/22-rdf-syntax-ns#"
   xmlns:svg="http://www.w3.org/2000/svg"
   xmlns="http://www.w3.org/2000/svg"
   xmlns:sodipodi="http://sodipodi.sourceforge.net/DTD/sodipodi-0.dtd"
   xmlns:inkscape="http://www.inkscape.org/namespaces/inkscape"
   width="307.04617"
   height="57.977234"
   id="svg2985"
   version="1.1"
   inkscape:version="0.48.3.1 r9886"
   sodipodi:docname="wordmark.svg">
  <defs
     id="defs3" />
  <sodipodi:namedview
     id="base"
     pagecolor="#ffffff"
     bordercolor="#666666"
     borderopacity="1.0"
     inkscape:pageopacity="0.0"
     inkscape:pageshadow="2"
     inkscape:zoom="1.4142136"
     inkscape:cx="158.54447"
     inkscape:cy="15.304507"
     inkscape:document-units="mm"
     inkscape:current-layer="layer1"
     showgrid="false"
     inkscape:snap-bbox="false"
     inkscape:object-nodes="true"
     inkscape:object-paths="true"
     inkscape:snap-nodes="false"
     showguides="true"
     inkscape:guide-bbox="true"
     inkscape:window-width="1366"
     inkscape:window-height="680"
     inkscape:window-x="0"
     inkscape:window-y="31"
     inkscape:window-maximized="1"
     units="mm"
     fit-margin-top="0"
     fit-margin-left="0"
     fit-margin-right="0"
     fit-margin-bottom="0" />
  <metadata
     id="metadata2989">
    <rdf:RDF>
      <cc:Work
         rdf:about="">
        <dc:format>image/svg+xml</dc:format>
        <dc:type
           rdf:resource="http://purl.org/dc/dcmitype/StillImage" />
        <dc:title></dc:title>
      </cc:Work>
    </rdf:RDF>
  </metadata>
  <g
     inkscape:label="Layer 1"
     inkscape:groupmode="layer"
     id="layer1"
     transform="translate(-7.230816,-46.572288)">
    <path
       inkscape:connector-curvature="0"
       id="path2997"
       style="font-size:61.21041106999999926px;font-style:normal;font-variant:normal;font-weight:bold;font-stretch:normal;line-height:125%;letter-spacing:0px;word-spacing:0px;fill:#ffffff;fill-opacity:1;stroke:none;font-family:Aharoni;-inkscape-font-specification:Aharoni Bold"
       d="m 50.317862,90.681534 -9.001625,0 0,-13.718544 c -3.7e-5,-2.391016 -0.228736,-4.024886 -0.6861,-4.901615 -0.676986,-1.295123 -1.692412,-1.942693 -3.046281,-1.942714 -1.500303,2.1e-5 -2.652949,0.707367 -3.457941,2.122041 -0.567205,0.996281 -0.850793,2.570375 -0.850764,4.722288 l 0,13.718544 -9.001625,0 0,-13.718544 c -2e-5,-2.391016 -0.182979,-3.945185 -0.548879,-4.662512 -0.731859,-1.434599 -1.85706,-2.151908 -3.37561,-2.151929 -1.408805,2.1e-5 -2.506563,0.617703 -3.293277,1.85305 -0.292748,0.438374 -0.503152,1.041112 -0.631211,1.808218 -0.128084,0.767138 -0.19212,1.818195 -0.192108,3.153173 l 0,13.718544 -9.001625,0 0,-27.735968 9.001625,0 0,3.40722 c 1.061154,-1.115789 2.03084,-1.932724 2.909062,-2.450807 1.591734,-0.93646 3.366442,-1.404703 5.324132,-1.404731 2.506527,2.8e-5 4.592267,0.707374 6.257227,2.12204 0.841587,0.717335 1.64661,1.733523 2.41507,3.048566 0.695217,-1.235342 1.472796,-2.211679 2.332738,-2.929014 1.811269,-1.514293 3.878714,-2.271452 6.202339,-2.27148 1.902743,2.8e-5 3.59512,0.498159 5.077136,1.494395 1.591706,1.095915 2.634577,2.580346 3.128613,4.453296 0.29269,1.135761 0.439058,2.550454 0.439104,4.244082 z" />
    <path
       inkscape:connector-curvature="0"
       id="path2999"
       style="font-size:61.21041106999999926px;font-style:normal;font-variant:normal;font-weight:bold;font-stretch:normal;line-height:125%;letter-spacing:0px;word-spacing:0px;fill:#ffffff;fill-opacity:1;stroke:none;font-family:Aharoni;-inkscape-font-specification:Aharoni Bold"
       d="m 80.635853,78.606824 -18.936345,0 c -1.1e-5,4.164388 1.847882,6.246576 5.543685,6.24657 1.88447,6e-6 3.32985,-0.876705 4.33615,-2.630135 l 8.69974,0 c -0.69528,2.510589 -1.71985,4.453301 -3.07372,5.82814 -2.45169,2.490658 -5.73582,3.735986 -9.8524,3.735987 -5.232659,-10e-7 -9.166291,-1.733497 -11.800906,-5.200494 -1.97597,-2.590278 -2.963952,-5.748429 -2.96395,-9.474463 -2e-6,-4.423391 1.234976,-8.019897 3.704937,-10.78953 2.46995,-2.769585 5.955332,-4.154389 10.456159,-4.154418 5.54366,2.9e-5 9.50474,2.191805 11.88324,6.575337 1.33558,2.470752 2.00338,5.339987 2.00341,8.607714 z m -8.39785,-5.618925 c -0.64039,-3.06847 -2.35106,-4.602713 -5.13203,-4.602736 -1.53688,2.3e-5 -2.781005,0.488191 -3.732382,1.464507 -0.750148,0.777106 -1.225843,1.823181 -1.427087,3.138229 z" />
    <path
       style="font-size:61.21041106999999926px;font-style:normal;font-variant:normal;font-weight:bold;font-stretch:normal;line-height:125%;letter-spacing:0px;word-spacing:0px;fill:#ffffff;fill-opacity:1;stroke:none;font-family:Aharoni;-inkscape-font-specification:Aharoni Bold"
       d="m 84.145833,54.59375 0,8.34375 -6.21875,0 c 0,0 1.951601,1.323226 4.132858,4.77772 2.181257,3.454494 2.085892,10.891604 2.085892,10.891604 l 1.4e-5,12.080676 9,0 0.0071,-19.679688 5.117903,-0.0078 0,-8.0625 -5.124989,0 0,-8.34375 z"
       id="path3001"
       inkscape:connector-curvature="0"
       sodipodi:nodetypes="ccczccccccccc" />
    <path
       inkscape:connector-curvature="0"
       id="path3005"
       style="font-size:61.21041106999999926px;font-style:normal;font-variant:normal;font-weight:bold;font-stretch:normal;line-height:125%;letter-spacing:0px;word-spacing:0px;fill:#ffffff;fill-opacity:1;stroke:none;font-family:Aharoni;-inkscape-font-specification:Aharoni Bold"
       d="m 161.2839,76.843438 c -3e-5,4.742222 -1.50945,8.528018 -4.52825,11.3574 -2.3968,2.251556 -5.15035,3.377332 -8.26064,3.377333 -1.81132,-10e-7 -3.51285,-0.418431 -5.10458,-1.255292 -0.91482,-0.478205 -1.85706,-1.265253 -2.82673,-2.361144 l 0,16.587785 -9.00162,0 0,-41.603954 9.00162,0 0,3.078454 c 0.80501,-1.15564 1.67407,-2.012425 2.60718,-2.570359 1.53684,-0.93646 3.28411,-1.404703 5.2418,-1.404732 3.16518,2.9e-5 5.98276,1.185581 8.45274,3.55666 2.94562,2.82941 4.41845,6.575356 4.41848,11.237849 z m -9.35839,-0.02989 c -3e-5,-1.57408 -0.45743,-2.93896 -1.3722,-4.094642 -1.15267,-1.47445 -2.63465,-2.211684 -4.44593,-2.211704 -1.62835,2e-5 -3.00513,0.60774 -4.13031,1.823162 -1.12522,1.215458 -1.68782,2.709851 -1.68781,4.483184 -1e-5,1.753435 0.56716,3.242847 1.70153,4.468241 1.13433,1.225411 2.50653,1.838113 4.11659,1.838105 1.81128,8e-6 3.28412,-0.737226 4.41849,-2.211704 0.93307,-1.195505 1.39961,-2.560384 1.39964,-4.094642 z" />
    <path
       inkscape:connector-curvature="0"
       id="path3007"
       style="font-size:61.21041106999999926px;font-style:normal;font-variant:normal;font-weight:bold;font-stretch:normal;line-height:125%;letter-spacing:0px;word-spacing:0px;fill:#ffffff;fill-opacity:1;stroke:none;font-family:Aharoni;-inkscape-font-specification:Aharoni Bold"
       d="m 194.02699,76.81355 c -4e-5,3.845586 -1.16183,7.143214 -3.48539,9.892894 -2.81761,3.347445 -6.76039,5.021165 -11.82835,5.021166 -5.0863,-10e-7 -9.03823,-1.673721 -11.8558,-5.021166 -2.32359,-2.74968 -3.48539,-6.127009 -3.48538,-10.131997 -1e-5,-3.606455 1.17093,-6.804457 3.51283,-9.594015 2.83586,-3.367342 6.87012,-5.051025 12.10279,-5.051054 4.81182,2.9e-5 8.65397,1.683712 11.52647,5.051054 2.34186,2.749708 3.51279,6.02741 3.51283,9.833118 z m -9.3584,0 c -2e-5,-1.793258 -0.58092,-3.312558 -1.74269,-4.557904 -1.16181,-1.245309 -2.56604,-1.867973 -4.21265,-1.867994 -1.8662,2.1e-5 -3.38477,0.75718 -4.5557,2.271481 -0.95141,1.215457 -1.4271,2.600262 -1.42709,4.154417 -1e-5,1.574108 0.47568,2.968875 1.42709,4.184305 1.17093,1.514329 2.6895,2.271488 4.5557,2.271481 1.66491,7e-6 3.0737,-0.622657 4.22637,-1.867994 1.15262,-1.245318 1.72895,-2.774581 1.72897,-4.587792 z" />
    <path
       inkscape:connector-curvature="0"
       id="path3011"
       style="font-size:61.21041106999999926px;font-style:normal;font-variant:normal;font-weight:bold;font-stretch:normal;line-height:125%;letter-spacing:0px;word-spacing:0px;fill:#ffffff;fill-opacity:1;stroke:none;font-family:Aharoni;-inkscape-font-specification:Aharoni Bold"
       d="m 237.45318,90.681534 -9.00162,0 0,-14.047311 c -3e-5,-2.450791 -0.25617,-4.074699 -0.76844,-4.871727 -0.75015,-1.175571 -1.87535,-1.763366 -3.37561,-1.763386 -1.37221,2e-5 -2.52485,0.508114 -3.45793,1.524282 -0.84163,0.916581 -1.26244,2.351198 -1.26243,4.303857 l 0,14.854285 -9.00163,0 0,-27.735968 9.00163,0 0,3.496884 c 1.04286,-1.315042 2.0034,-2.241566 2.88162,-2.779574 1.42707,-0.876684 3.21093,-1.315039 5.35157,-1.315068 2.74438,2.9e-5 4.97649,0.807001 6.69634,2.42092 1.95764,1.833148 2.93647,4.582832 2.9365,8.249059 z" />
    <path
       style="font-size:61.21041106999999926px;font-style:normal;font-variant:normal;font-weight:bold;font-stretch:normal;line-height:125%;letter-spacing:0px;word-spacing:0px;fill:#ffffff;fill-opacity:1;stroke:none;font-family:Aharoni;-inkscape-font-specification:Aharoni Bold"
       d="m 240.68596,54.59375 0,8.34375 -4.84375,0 c 0,0 2.67574,1.147134 3.9375,3.9375 0.32854,0.726558 0.62329,1.844595 0.90625,3.09375 l 0,20.71875 1.375,0 7.625,0 0,-19.6875 5.15625,0 0,-8.0625 -5.15625,0 0,-8.34375 -7.625,0 -1.375,0 z"
       id="path3013"
       inkscape:connector-curvature="0" />
    <path
       inkscape:connector-curvature="0"
       d="m 206.57249,90.47761 -9.80323,0 0,-27.73597 9.80323,0 z m 0.62765,-38.40595 c -1e-5,1.55421 -0.53301,2.86429 -1.599,3.93026 -1.06602,1.06603 -2.3761,1.59903 -3.93026,1.599 -1.53425,3e-5 -2.83438,-0.53795 -3.90037,-1.61394 -1.06601,-1.07593 -1.59901,-2.38104 -1.599,-3.91532 -1e-5,-1.5342 0.53299,-2.834331 1.599,-3.90037 1.06599,-1.065958 2.36612,-1.598959 3.90037,-1.599002 1.53423,4.3e-5 2.83934,0.533044 3.91531,1.599002 1.07595,1.066039 1.61394,2.36617 1.61395,3.90037 z"
       style="font-size:61.21041106999999926px;font-style:normal;font-variant:normal;font-weight:bold;font-stretch:normal;line-height:125%;letter-spacing:0px;word-spacing:0px;fill:#ffffff;fill-opacity:1;stroke:none;font-family:Aharoni;-inkscape-font-specification:Aharoni Bold"
       id="path3060" />
    <text
       xml:space="preserve"
       style="font-size:40px;font-style:normal;font-weight:normal;line-height:125%;letter-spacing:0px;word-spacing:0px;fill:#000000;fill-opacity:1;stroke:none;font-family:Sans"
       x="82.5"
       y="111.12369"
       id="text3062"
       sodipodi:linespacing="125%"><tspan
         sodipodi:role="line"
         id="tspan3064"
         x="82.5"
         y="111.12369" /></text>
    <g
       style="font-size:40px;font-style:normal;font-variant:normal;font-weight:bold;font-stretch:normal;line-height:125%;letter-spacing:0px;word-spacing:0px;fill:#ffffff;fill-opacity:1;stroke:none;font-family:Aharoni;-inkscape-font-specification:Aharoni Bold"
       id="text3075"
       transform="matrix(1.5820879,0,0,1.5820879,-107.94917,25.305334)">
      <path
         d="m 149.11873,41.317723 -5.61187,0 0,-3.628368 c -0.59393,0.745548 -1.8106,2.141719 -2.65096,2.627072 -0.84036,0.485353 -2.24146,1.093113 -3.60966,1.119476 -2.21214,0.04262 -3.49254,-0.08551 -5.11944,-1.384276 -1.94018,-1.54978 -2.75072,-3.49715 -2.55918,-5.990578 0.19484,-2.536036 1.28661,-4.730157 3.21693,-6.816594 1.5325,-1.659933 3.22902,-2.834352 5.17752,-3.29845 2.19251,-0.197524 5.54479,-0.21815 5.54479,-0.21815 l 5.61187,0 z m -6.29815,-9.364427 c 0.19358,-0.93508 -0.0488,-1.706519 -0.72138,-2.279734 -0.67265,-0.57319 -1.55356,-0.760853 -2.56712,-0.507754 -1.12879,0.281895 -2.04678,0.984231 -2.78831,2.024653 -0.60029,0.843411 -0.92115,1.683373 -0.95767,2.546664 -0.0365,0.863303 0.22535,1.5675 0.75387,2.106801 0.64225,0.667583 1.45524,0.847068 2.42737,0.504878 0.87392,-0.307606 1.62476,-0.921416 2.37219,-1.763957 0.7474,-0.842527 1.28531,-1.685825 1.48105,-2.631551 z"
         id="path3080"
         inkscape:connector-curvature="0"
         sodipodi:nodetypes="ccczscscccccccccccscc"
         style="fill:#ffffff" />
    </g>
    <path
       d="m 314.27699,76.81355 c -4e-5,3.845586 -1.16183,7.143214 -3.48539,9.892894 -2.81761,3.347445 -6.76039,5.021165 -11.82835,5.021166 -5.0863,-10e-7 -9.03823,-1.673721 -11.8558,-5.021166 -2.32359,-2.74968 -3.48539,-6.127009 -3.48538,-10.131997 -1e-5,-3.606455 1.17093,-6.804457 3.51283,-9.594015 2.83586,-3.367342 6.87012,-5.051025 12.10279,-5.051054 4.81182,2.9e-5 8.65397,1.683712 11.52647,5.051054 2.34186,2.749708 3.51279,6.02741 3.51283,9.833118 z m -9.3584,0 c -2e-5,-1.793258 -0.58092,-3.312558 -1.74269,-4.557904 -1.16181,-1.245309 -2.56604,-1.867973 -4.21265,-1.867994 -1.8662,2.1e-5 -3.38477,0.75718 -4.5557,2.271481 -0.95141,1.215457 -1.4271,2.600262 -1.42709,4.154417 -10e-6,1.574108 0.47568,2.968875 1.42709,4.184305 1.17093,1.514329 2.6895,2.271488 4.5557,2.271481 1.66491,7e-6 3.0737,-0.622657 4.22637,-1.867994 1.15262,-1.245318 1.72895,-2.774581 1.72897,-4.587792 z"
       style="font-size:61.21041106999999926px;font-style:normal;font-variant:normal;font-weight:bold;font-stretch:normal;line-height:125%;letter-spacing:0px;word-spacing:0px;fill:#ffffff;fill-opacity:1;stroke:none;font-family:Aharoni;-inkscape-font-specification:Aharoni Bold"
       id="path3090"
       inkscape:connector-curvature="0" />
    <path
       id="path3092"
       style="font-size:61.21041106999999926px;font-style:normal;font-variant:normal;font-weight:bold;font-stretch:normal;line-height:125%;letter-spacing:0px;word-spacing:0px;fill:#ffffff;fill-opacity:1;stroke:none;font-family:Aharoni;-inkscape-font-specification:Aharoni Bold"
       d="m 280.32249,90.47761 -9.80323,0 0,-27.73597 9.80323,0 z m 0.62765,-38.40595 c -10e-6,1.55421 -0.53301,2.86429 -1.599,3.93026 -1.06602,1.06603 -2.3761,1.59903 -3.93026,1.599 -1.53425,3e-5 -2.83438,-0.53795 -3.90037,-1.61394 -1.06601,-1.07593 -1.59901,-2.38104 -1.599,-3.91532 -1e-5,-1.5342 0.53299,-2.834331 1.599,-3.90037 1.06599,-1.065958 2.36612,-1.598959 3.90037,-1.599002 1.53423,4.3e-5 2.83934,0.533044 3.91531,1.599002 1.07595,1.066039 1.61394,2.36617 1.61395,3.90037 z"
       inkscape:connector-curvature="0" />
    <path
       style="font-size:61.21041106999999926px;font-style:normal;font-variant:normal;font-weight:bold;font-stretch:normal;line-height:125%;letter-spacing:0px;word-spacing:0px;fill:#ffffff;fill-opacity:1;stroke:none;font-family:Aharoni;-inkscape-font-specification:Aharoni Bold"
       d="m 265.81626,85.82166 c -10e-6,1.55421 -0.53301,2.86429 -1.599,3.93026 -1.06602,1.06603 -2.3761,1.59903 -3.93026,1.599 -1.53425,3e-5 -2.83438,-0.53795 -3.90037,-1.61394 -1.06601,-1.07593 -1.59901,-2.38104 -1.599,-3.91532 -1e-5,-1.5342 0.53299,-2.834331 1.599,-3.90037 1.06599,-1.065958 2.36612,-1.598959 3.90037,-1.599002 1.53423,4.3e-5 2.83934,0.533044 3.91531,1.599002 1.07595,1.066039 1.61394,2.36617 1.61395,3.90037 z"
       id="path3096"
       inkscape:connector-curvature="0" />
    <text
       xml:space="preserve"
       style="font-size:40px;font-style:normal;font-variant:normal;font-weight:bold;font-stretch:normal;line-height:125%;letter-spacing:0px;word-spacing:0px;fill:#000000;fill-opacity:1;stroke:none;font-family:Aharoni;-inkscape-font-specification:Aharoni Bold"
       x="133.875"
       y="145.16536"
       id="text3874"
       sodipodi:linespacing="125%"><tspan
         sodipodi:role="line"
         id="tspan3876"
         x="133.875"
         y="145.16536" /></text>
  </g>
</svg>
